<svg height="472pt" viewBox="-60 0 472 472" width="472pt" xmlns="http://www.w3.org/2000/svg"><path d="m136 256h80v80h-80zm0 0" fill="#fec9a3"/><g fill="#feb784"><path d="m136 256v45.207031c24.726562 14.390625 55.273438 14.390625 80 0v-45.207031zm0 0"/><path d="m80 152c-13.253906 0-24 10.746094-24 24s10.746094 24 24 24h16l-8-48zm0 0"/><path d="m272 152h-16v48h16c13.253906 0 24-10.746094 24-24s-10.746094-24-24-24zm0 0"/></g><path d="m176 296c-40.925781-.011719-75.242188-30.910156-79.535156-71.609375l-8.464844-80.390625c0-39.765625 32.234375-72 72-72h32c39.765625 0 72 32.234375 72 72l-8.464844 80.390625c-4.292968 40.699219-38.609375 71.597656-79.535156 71.609375zm0 0" fill="#fec9a3"/><path d="m192 72h-32c39.765625 0 72 32.234375 72 72l-8.464844 80.390625c-3.667968 34.675781-29.375 62.980469-63.535156 69.960937 22.097656 4.5625 45.09375-.441406 63.296875-13.773437s29.917969-33.742187 32.238281-56.1875l8.464844-80.390625c0-39.765625-32.234375-72-72-72zm0 0" fill="#fec093"/><path d="m352 472v-72c0-35.347656-28.652344-64-64-64h-224c-35.347656 0-64 28.652344-64 64v72" fill="#348fd9"/><path d="m240 336-64 96-64-96h-48v136h224v-136zm0 0" fill="#ffb531"/><path d="m144 176c0 8.835938-7.164062 16-16 16s-16-7.164062-16-16 7.164062-16 16-16 16 7.164062 16 16zm0 0" fill="#964138"/><path d="m240 176c0 8.835938-7.164062 16-16 16s-16-7.164062-16-16 7.164062-16 16-16 16 7.164062 16 16zm0 0" fill="#964138"/><path d="m184 216h-24c-2.570312 0-4.988281-1.234375-6.492188-3.320312-1.503906-2.085938-1.914062-4.769532-1.101562-7.207032l16-48 15.203125 5.054688-12.511719 37.472656h12.902344zm0 0" fill="#f7a468"/><path d="m169.367188 248h-9.367188v-16h9.367188c12.375.035156 24.25-4.882812 32.976562-13.65625l11.3125 11.3125c-11.71875 11.785156-27.667969 18.394531-44.289062 18.34375zm0 0" fill="#f7a468"/><path d="m64 472v-136h32v136" fill="#e0e0de"/><path d="m256 472v-136h32v136" fill="#e0e0de"/><path d="m64 472v-112h32v112" fill="#d6d6d4"/><path d="m256 472v-112h32v112" fill="#d6d6d4"/><path d="m184 472h-16v-40c0-4.417969 3.582031-8 8-8s8 3.582031 8 8zm0 0" fill="#f7a116"/><path d="m112 336 32 48 32-48zm0 0" fill="#5ea2dc"/><path d="m208 384 32-48h-64zm0 0" fill="#5ea2dc"/><path d="m264 144c0-39.765625-32.234375-72-72-72h-32c-39.765625 0-72 32.234375-72 72l1.6875 16h172.625zm0 0" fill="#fec093"/><path d="m280 144h-208v-24c0-57.4375 46.5625-104 104-104s104 46.5625 104 104zm0 0" fill="#ffa912"/><path d="m280 120c0-35.125-17.761719-67.871094-47.199219-87.03125-25.824219 59.582031-79.199219 96-105.511719 111.03125h152.710938zm0 0" fill="#f7a116"/><path d="m72 112h208c8.835938 0 16 7.164062 16 16s-7.164062 16-16 16h-208c-8.835938 0-16-7.164062-16-16s7.164062-16 16-16zm0 0" fill="#ffb531"/><path d="m280 112h-64c8.835938 0 16 7.164062 16 16s-7.164062 16-16 16h64c8.835938 0 16-7.164062 16-16s-7.164062-16-16-16zm0 0" fill="#ffa912"/><path d="m152 0h48v80h-48zm0 0" fill="#ffb531"/><path d="m128 88h-16v-48c0-4.417969 3.582031-8 8-8s8 3.582031 8 8zm0 0" fill="#ffb531"/><path d="m240 88h-16v-48c0-4.417969 3.582031-8 8-8s8 3.582031 8 8zm0 0" fill="#ffb531"/><path d="m288 336v136h16v-133.902344c-5.222656-1.375-10.597656-2.078125-16-2.097656zm0 0" fill="#3086cd"/></svg>